solid Cheetah3Dfile
 facet normal 0.0000 -0.9962 0.0872
   outer loop
     vertex 30.1490 11.3571 64.3409
     vertex 26.0131 11.3926 64.7467
     vertex 26.0131 9.5448 43.6269
   endloop
 endfacet
 facet normal -0.0000 -0.9962 0.0872
   outer loop
     vertex 34.1260 11.2519 63.1391
     vertex 30.1490 11.3571 64.3409
     vertex 26.0131 9.5448 43.6269
   endloop
 endfacet
 facet normal -0.0000 -0.9962 0.0872
   outer loop
     vertex 37.7912 11.0812 61.1874
     vertex 34.1260 11.2519 63.1391
     vertex 26.0131 9.5448 43.6269
   endloop
 endfacet
 facet normal 0.0000 -0.9962 0.0872
   outer loop
     vertex 41.0038 10.8514 58.5609
     vertex 37.7912 11.0812 61.1874
     vertex 26.0131 9.5448 43.6269
   endloop
 endfacet
 facet normal 0.0000 -0.9962 0.0872
   outer loop
     vertex 43.6403 10.5714 55.3605
     vertex 41.0038 10.8514 58.5609
     vertex 26.0131 9.5448 43.6269
   endloop
 endfacet
 facet normal -0.0000 -0.9962 0.0872
   outer loop
     vertex 45.5994 10.2519 51.7091
     vertex 43.6403 10.5714 55.3605
     vertex 26.0131 9.5448 43.6269
   endloop
 endfacet
 facet normal -0.0000 -0.9962 0.0872
   outer loop
     vertex 46.8058 9.9053 47.7472
     vertex 45.5994 10.2519 51.7091
     vertex 26.0131 9.5448 43.6269
   endloop
 endfacet
 facet normal 0.0000 -0.9962 0.0872
   outer loop
     vertex 47.2131 9.5448 43.6269
     vertex 46.8058 9.9053 47.7472
     vertex 26.0131 9.5448 43.6269
   endloop
 endfacet
 facet normal 0.0000 -0.9962 0.0872
   outer loop
     vertex 46.8058 9.1843 39.5067
     vertex 47.2131 9.5448 43.6269
     vertex 26.0131 9.5448 43.6269
   endloop
 endfacet
 facet normal -0.0000 -0.9962 0.0872
   outer loop
     vertex 45.5994 8.8377 35.5447
     vertex 46.8058 9.1843 39.5067
     vertex 26.0131 9.5448 43.6269
   endloop
 endfacet
 facet normal 0.0000 -0.9962 0.0872
   outer loop
     vertex 43.6403 8.5182 31.8934
     vertex 45.5994 8.8377 35.5447
     vertex 26.0131 9.5448 43.6269
   endloop
 endfacet
 facet normal 0.0000 -0.9962 0.0872
   outer loop
     vertex 41.0038 8.2382 28.6930
     vertex 43.6403 8.5182 31.8934
     vertex 26.0131 9.5448 43.6269
   endloop
 endfacet
 facet normal -0.0000 -0.9962 0.0872
   outer loop
     vertex 37.7912 8.0085 26.0665
     vertex 41.0038 8.2382 28.6930
     vertex 26.0131 9.5448 43.6269
   endloop
 endfacet
 facet normal 0.0000 -0.9962 0.0872
   outer loop
     vertex 34.1260 7.8377 24.1148
     vertex 37.7912 8.0085 26.0665
     vertex 26.0131 9.5448 43.6269
   endloop
 endfacet
 facet normal 0.0000 -0.9962 0.0872
   outer loop
     vertex 30.1490 7.7326 22.9130
     vertex 34.1260 7.8377 24.1148
     vertex 26.0131 9.5448 43.6269
   endloop
 endfacet
 facet normal -0.0000 -0.9962 0.0872
   outer loop
     vertex 26.0131 7.6970 22.5072
     vertex 30.1490 7.7326 22.9130
     vertex 26.0131 9.5448 43.6269
   endloop
 endfacet
 facet normal -0.0000 -0.9962 0.0872
   outer loop
     vertex 21.8772 7.7326 22.9130
     vertex 26.0131 7.6970 22.5072
     vertex 26.0131 9.5448 43.6269
   endloop
 endfacet
 facet normal 0.0000 -0.9962 0.0872
   outer loop
     vertex 17.9003 7.8377 24.1148
     vertex 21.8772 7.7326 22.9130
     vertex 26.0131 9.5448 43.6269
   endloop
 endfacet
 facet normal 0.0000 -0.9962 0.0872
   outer loop
     vertex 14.2351 8.0085 26.0665
     vertex 17.9003 7.8377 24.1148
     vertex 26.0131 9.5448 43.6269
   endloop
 endfacet
 facet normal -0.0000 -0.9962 0.0872
   outer loop
     vertex 11.0225 8.2382 28.6930
     vertex 14.2351 8.0085 26.0665
     vertex 26.0131 9.5448 43.6269
   endloop
 endfacet
 facet normal -0.0000 -0.9962 0.0872
   outer loop
     vertex 8.3860 8.5182 31.8934
     vertex 11.0225 8.2382 28.6930
     vertex 26.0131 9.5448 43.6269
   endloop
 endfacet
 facet normal 0.0000 -0.9962 0.0872
   outer loop
     vertex 6.4269 8.8377 35.5448
     vertex 8.3860 8.5182 31.8934
     vertex 26.0131 9.5448 43.6269
   endloop
 endfacet
 facet normal -0.0000 -0.9962 0.0872
   outer loop
     vertex 5.2205 9.1843 39.5067
     vertex 6.4269 8.8377 35.5448
     vertex 26.0131 9.5448 43.6269
   endloop
 endfacet
 facet normal 0.0000 -0.9962 0.0872
   outer loop
     vertex 4.8132 9.5448 43.6269
     vertex 5.2205 9.1843 39.5067
     vertex 26.0131 9.5448 43.6269
   endloop
 endfacet
 facet normal 0.0000 -0.9962 0.0872
   outer loop
     vertex 5.2205 9.9053 47.7472
     vertex 4.8132 9.5448 43.6269
     vertex 26.0131 9.5448 43.6269
   endloop
 endfacet
 facet normal 0.0000 -0.9962 0.0872
   outer loop
     vertex 6.4269 10.2519 51.7091
     vertex 5.2205 9.9053 47.7472
     vertex 26.0131 9.5448 43.6269
   endloop
 endfacet
 facet normal -0.0000 -0.9962 0.0872
   outer loop
     vertex 8.3860 10.5714 55.3605
     vertex 6.4269 10.2519 51.7091
     vertex 26.0131 9.5448 43.6269
   endloop
 endfacet
 facet normal -0.0000 -0.9962 0.0872
   outer loop
     vertex 11.0225 10.8514 58.5609
     vertex 8.3860 10.5714 55.3605
     vertex 26.0131 9.5448 43.6269
   endloop
 endfacet
 facet normal 0.0000 -0.9962 0.0872
   outer loop
     vertex 14.2351 11.0812 61.1874
     vertex 11.0225 10.8514 58.5609
     vertex 26.0131 9.5448 43.6269
   endloop
 endfacet
 facet normal 0.0000 -0.9962 0.0872
   outer loop
     vertex 17.9003 11.2519 63.1391
     vertex 14.2351 11.0812 61.1874
     vertex 26.0131 9.5448 43.6269
   endloop
 endfacet
 facet normal 0.0000 -0.9962 0.0872
   outer loop
     vertex 21.8772 11.3571 64.3409
     vertex 17.9003 11.2519 63.1391
     vertex 26.0131 9.5448 43.6269
   endloop
 endfacet
 facet normal -0.0000 -0.9962 0.0872
   outer loop
     vertex 26.0131 11.3926 64.7467
     vertex 21.8772 11.3571 64.3409
     vertex 26.0131 9.5448 43.6269
   endloop
 endfacet
 facet normal 0.0902 0.4706 0.8777
   outer loop
     vertex 26.0131 11.3926 64.7467
     vertex 30.1490 11.3571 64.3409
     vertex 26.0131 58.8242 39.3155
   endloop
 endfacet
 facet normal 0.2670 0.4675 0.8427
   outer loop
     vertex 30.1490 11.3571 64.3409
     vertex 34.1260 11.2519 63.1391
     vertex 26.0131 58.8242 39.3155
   endloop
 endfacet
 facet normal 0.4336 0.4615 0.7739
   outer loop
     vertex 34.1260 11.2519 63.1391
     vertex 37.7912 11.0812 61.1874
     vertex 26.0131 58.8242 39.3155
   endloop
 endfacet
 facet normal 0.5835 0.4528 0.6741
   outer loop
     vertex 37.7912 11.0812 61.1874
     vertex 41.0038 10.8514 58.5609
     vertex 26.0131 58.8242 39.3155
   endloop
 endfacet
 facet normal 0.7110 0.4417 0.5471
   outer loop
     vertex 41.0038 10.8514 58.5609
     vertex 43.6403 10.5714 55.3605
     vertex 26.0131 58.8242 39.3155
   endloop
 endfacet
 facet normal 0.8112 0.4286 0.3978
   outer loop
     vertex 43.6403 10.5714 55.3605
     vertex 45.5994 10.2519 51.7091
     vertex 26.0131 58.8242 39.3155
   endloop
 endfacet
 facet normal 0.8802 0.4141 0.2318
   outer loop
     vertex 45.5994 10.2519 51.7091
     vertex 46.8058 9.9053 47.7472
     vertex 26.0131 58.8242 39.3155
   endloop
 endfacet
 facet normal 0.9154 0.3987 0.0556
   outer loop
     vertex 46.8058 9.9053 47.7472
     vertex 47.2131 9.5448 43.6269
     vertex 26.0131 58.8242 39.3155
   endloop
 endfacet
 facet normal 0.9154 0.3830 -0.1240
   outer loop
     vertex 47.2131 9.5448 43.6269
     vertex 46.8058 9.1843 39.5067
     vertex 26.0131 58.8242 39.3155
   endloop
 endfacet
 facet normal 0.8802 0.3675 -0.3002
   outer loop
     vertex 46.8058 9.1843 39.5067
     vertex 45.5994 8.8377 35.5447
     vertex 26.0131 58.8242 39.3155
   endloop
 endfacet
 facet normal 0.8112 0.3530 -0.4661
   outer loop
     vertex 45.5994 8.8377 35.5447
     vertex 43.6403 8.5182 31.8934
     vertex 26.0131 58.8242 39.3155
   endloop
 endfacet
 facet normal 0.7110 0.3400 -0.6155
   outer loop
     vertex 43.6403 8.5182 31.8934
     vertex 41.0038 8.2382 28.6930
     vertex 26.0131 58.8242 39.3155
   endloop
 endfacet
 facet normal 0.5835 0.3288 -0.7425
   outer loop
     vertex 41.0038 8.2382 28.6930
     vertex 37.7912 8.0085 26.0665
     vertex 26.0131 58.8242 39.3155
   endloop
 endfacet
 facet normal 0.4336 0.3201 -0.8423
   outer loop
     vertex 37.7912 8.0085 26.0665
     vertex 34.1260 7.8377 24.1148
     vertex 26.0131 58.8242 39.3155
   endloop
 endfacet
 facet normal 0.2670 0.3141 -0.9111
   outer loop
     vertex 34.1260 7.8377 24.1148
     vertex 30.1490 7.7326 22.9130
     vertex 26.0131 58.8242 39.3155
   endloop
 endfacet
 facet normal 0.0902 0.3110 -0.9461
   outer loop
     vertex 30.1490 7.7326 22.9130
     vertex 26.0131 7.6970 22.5072
     vertex 26.0131 58.8242 39.3155
   endloop
 endfacet
 facet normal -0.0902 0.3110 -0.9461
   outer loop
     vertex 26.0131 7.6970 22.5072
     vertex 21.8772 7.7326 22.9130
     vertex 26.0131 58.8242 39.3155
   endloop
 endfacet
 facet normal -0.2670 0.3141 -0.9111
   outer loop
     vertex 21.8772 7.7326 22.9130
     vertex 17.9003 7.8377 24.1148
     vertex 26.0131 58.8242 39.3155
   endloop
 endfacet
 facet normal -0.4336 0.3201 -0.8423
   outer loop
     vertex 17.9003 7.8377 24.1148
     vertex 14.2351 8.0085 26.0665
     vertex 26.0131 58.8242 39.3155
   endloop
 endfacet
 facet normal -0.5835 0.3288 -0.7425
   outer loop
     vertex 14.2351 8.0085 26.0665
     vertex 11.0225 8.2382 28.6930
     vertex 26.0131 58.8242 39.3155
   endloop
 endfacet
 facet normal -0.7110 0.3400 -0.6155
   outer loop
     vertex 11.0225 8.2382 28.6930
     vertex 8.3860 8.5182 31.8934
     vertex 26.0131 58.8242 39.3155
   endloop
 endfacet
 facet normal -0.8112 0.3530 -0.4661
   outer loop
     vertex 8.3860 8.5182 31.8934
     vertex 6.4269 8.8377 35.5448
     vertex 26.0131 58.8242 39.3155
   endloop
 endfacet
 facet normal -0.8802 0.3675 -0.3002
   outer loop
     vertex 6.4269 8.8377 35.5448
     vertex 5.2205 9.1843 39.5067
     vertex 26.0131 58.8242 39.3155
   endloop
 endfacet
 facet normal -0.9154 0.3830 -0.1240
   outer loop
     vertex 5.2205 9.1843 39.5067
     vertex 4.8132 9.5448 43.6269
     vertex 26.0131 58.8242 39.3155
   endloop
 endfacet
 facet normal -0.9154 0.3987 0.0556
   outer loop
     vertex 4.8132 9.5448 43.6269
     vertex 5.2205 9.9053 47.7472
     vertex 26.0131 58.8242 39.3155
   endloop
 endfacet
 facet normal -0.8802 0.4141 0.2318
   outer loop
     vertex 5.2205 9.9053 47.7472
     vertex 6.4269 10.2519 51.7091
     vertex 26.0131 58.8242 39.3155
   endloop
 endfacet
 facet normal -0.8112 0.4286 0.3978
   outer loop
     vertex 6.4269 10.2519 51.7091
     vertex 8.3860 10.5714 55.3605
     vertex 26.0131 58.8242 39.3155
   endloop
 endfacet
 facet normal -0.7110 0.4417 0.5471
   outer loop
     vertex 8.3860 10.5714 55.3605
     vertex 11.0225 10.8514 58.5609
     vertex 26.0131 58.8242 39.3155
   endloop
 endfacet
 facet normal -0.5835 0.4528 0.6741
   outer loop
     vertex 11.0225 10.8514 58.5609
     vertex 14.2351 11.0812 61.1874
     vertex 26.0131 58.8242 39.3155
   endloop
 endfacet
 facet normal -0.4336 0.4615 0.7739
   outer loop
     vertex 14.2351 11.0812 61.1874
     vertex 17.9003 11.2519 63.1391
     vertex 26.0131 58.8242 39.3155
   endloop
 endfacet
 facet normal -0.2670 0.4675 0.8427
   outer loop
     vertex 17.9003 11.2519 63.1391
     vertex 21.8772 11.3571 64.3409
     vertex 26.0131 58.8242 39.3155
   endloop
 endfacet
 facet normal -0.0902 0.4706 0.8777
   outer loop
     vertex 21.8772 11.3571 64.3409
     vertex 26.0131 11.3926 64.7467
     vertex 26.0131 58.8242 39.3155
   endloop
 endfacet
 facet normal 0.3319 -0.9118 0.2419
   outer loop
     vertex 10.3400 -17.0007 19.7458
     vertex 6.6417 -18.2479 20.1187
     vertex 8.2965 -22.7945 0.7127
   endloop
 endfacet
 facet normal 0.3319 -0.9118 0.2419
   outer loop
     vertex 13.9597 -15.9762 18.6415
     vertex 10.3400 -17.0007 19.7458
     vertex 8.2965 -22.7945 0.7127
   endloop
 endfacet
 facet normal 0.3319 -0.9118 0.2419
   outer loop
     vertex 17.3619 -15.2138 16.8482
     vertex 13.9597 -15.9762 18.6415
     vertex 8.2965 -22.7945 0.7127
   endloop
 endfacet
 facet normal 0.3319 -0.9118 0.2419
   outer loop
     vertex 20.4156 -14.7426 14.4348
     vertex 17.3619 -15.2138 16.8482
     vertex 8.2965 -22.7945 0.7127
   endloop
 endfacet
 facet normal 0.3319 -0.9118 0.2419
   outer loop
     vertex 23.0036 -14.5809 11.4941
     vertex 20.4156 -14.7426 14.4348
     vertex 8.2965 -22.7945 0.7127
   endloop
 endfacet
 facet normal 0.3319 -0.9118 0.2419
   outer loop
     vertex 25.0265 -14.7349 8.1391
     vertex 23.0036 -14.5809 11.4941
     vertex 8.2965 -22.7945 0.7127
   endloop
 endfacet
 facet normal 0.3319 -0.9118 0.2419
   outer loop
     vertex 26.4064 -15.1985 4.4986
     vertex 25.0265 -14.7349 8.1391
     vertex 8.2965 -22.7945 0.7127
   endloop
 endfacet
 facet normal 0.3319 -0.9118 0.2419
   outer loop
     vertex 27.0904 -15.9541 0.7127
     vertex 26.4064 -15.1985 4.4986
     vertex 8.2965 -22.7945 0.7127
   endloop
 endfacet
 facet normal 0.3319 -0.9118 0.2419
   outer loop
     vertex 27.0521 -16.9725 -3.0732
     vertex 27.0904 -15.9541 0.7127
     vertex 8.2965 -22.7945 0.7127
   endloop
 endfacet
 facet normal 0.3319 -0.9118 0.2419
   outer loop
     vertex 26.2930 -18.2147 -6.7136
     vertex 27.0521 -16.9725 -3.0732
     vertex 8.2965 -22.7945 0.7127
   endloop
 endfacet
 facet normal 0.3319 -0.9118 0.2419
   outer loop
     vertex 24.8424 -19.6329 -10.0686
     vertex 26.2930 -18.2147 -6.7136
     vertex 8.2965 -22.7945 0.7127
   endloop
 endfacet
 facet normal 0.3319 -0.9118 0.2419
   outer loop
     vertex 22.7559 -21.1726 -13.0093
     vertex 24.8424 -19.6329 -10.0686
     vertex 8.2965 -22.7945 0.7127
   endloop
 endfacet
 facet normal 0.3319 -0.9118 0.2419
   outer loop
     vertex 20.1138 -22.7746 -15.4227
     vertex 22.7559 -21.1726 -13.0093
     vertex 8.2965 -22.7945 0.7127
   endloop
 endfacet
 facet normal 0.3319 -0.9118 0.2419
   outer loop
     vertex 17.0175 -24.3773 -17.2160
     vertex 20.1138 -22.7746 -15.4227
     vertex 8.2965 -22.7945 0.7127
   endloop
 endfacet
 facet normal 0.3319 -0.9118 0.2419
   outer loop
     vertex 13.5861 -25.9193 -18.3203
     vertex 17.0175 -24.3773 -17.2160
     vertex 8.2965 -22.7945 0.7127
   endloop
 endfacet
 facet normal 0.3319 -0.9118 0.2419
   outer loop
     vertex 9.9514 -27.3411 -18.6932
     vertex 13.5861 -25.9193 -18.3203
     vertex 8.2965 -22.7945 0.7127
   endloop
 endfacet
 facet normal 0.3319 -0.9118 0.2419
   outer loop
     vertex 6.2531 -28.5883 -18.3203
     vertex 9.9514 -27.3411 -18.6932
     vertex 8.2965 -22.7945 0.7127
   endloop
 endfacet
 facet normal 0.3319 -0.9118 0.2419
   outer loop
     vertex 2.6333 -29.6128 -17.2160
     vertex 6.2531 -28.5883 -18.3203
     vertex 8.2965 -22.7945 0.7127
   endloop
 endfacet
 facet normal 0.3319 -0.9118 0.2419
   outer loop
     vertex -0.7688 -30.3752 -15.4227
     vertex 2.6333 -29.6128 -17.2160
     vertex 8.2965 -22.7945 0.7127
   endloop
 endfacet
 facet normal 0.3319 -0.9118 0.2419
   outer loop
     vertex -3.8226 -30.8464 -13.0093
     vertex -0.7688 -30.3752 -15.4227
     vertex 8.2965 -22.7945 0.7127
   endloop
 endfacet
 facet normal 0.3319 -0.9118 0.2419
   outer loop
     vertex -6.4106 -31.0081 -10.0686
     vertex -3.8226 -30.8464 -13.0093
     vertex 8.2965 -22.7945 0.7127
   endloop
 endfacet
 facet normal 0.3319 -0.9118 0.2419
   outer loop
     vertex -8.4335 -30.8541 -6.7136
     vertex -6.4106 -31.0081 -10.0686
     vertex 8.2965 -22.7945 0.7127
   endloop
 endfacet
 facet normal 0.3319 -0.9118 0.2419
   outer loop
     vertex -9.8134 -30.3905 -3.0732
     vertex -8.4335 -30.8541 -6.7136
     vertex 8.2965 -22.7945 0.7127
   endloop
 endfacet
 facet normal 0.3319 -0.9118 0.2419
   outer loop
     vertex -10.4973 -29.6349 0.7127
     vertex -9.8134 -30.3905 -3.0732
     vertex 8.2965 -22.7945 0.7127
   endloop
 endfacet
 facet normal 0.3319 -0.9118 0.2419
   outer loop
     vertex -10.4591 -28.6165 4.4986
     vertex -10.4973 -29.6349 0.7127
     vertex 8.2965 -22.7945 0.7127
   endloop
 endfacet
 facet normal 0.3319 -0.9118 0.2419
   outer loop
     vertex -9.7000 -27.3743 8.1391
     vertex -10.4591 -28.6165 4.4986
     vertex 8.2965 -22.7945 0.7127
   endloop
 endfacet
 facet normal 0.3319 -0.9118 0.2419
   outer loop
     vertex -8.2494 -25.9561 11.4941
     vertex -9.7000 -27.3743 8.1391
     vertex 8.2965 -22.7945 0.7127
   endloop
 endfacet
 facet normal 0.3319 -0.9118 0.2419
   outer loop
     vertex -6.1629 -24.4164 14.4348
     vertex -8.2494 -25.9561 11.4941
     vertex 8.2965 -22.7945 0.7127
   endloop
 endfacet
 facet normal 0.3319 -0.9118 0.2419
   outer loop
     vertex -3.5207 -22.8144 16.8482
     vertex -6.1629 -24.4164 14.4348
     vertex 8.2965 -22.7945 0.7127
   endloop
 endfacet
 facet normal 0.3319 -0.9118 0.2419
   outer loop
     vertex -0.4245 -21.2117 18.6415
     vertex -3.5207 -22.8144 16.8482
     vertex 8.2965 -22.7945 0.7127
   endloop
 endfacet
 facet normal 0.3319 -0.9118 0.2419
   outer loop
     vertex 3.0070 -19.6697 19.7458
     vertex -0.4245 -21.2117 18.6415
     vertex 8.2965 -22.7945 0.7127
   endloop
 endfacet
 facet normal 0.3319 -0.9118 0.2419
   outer loop
     vertex 6.6417 -18.2479 20.1187
     vertex 3.0070 -19.6697 19.7458
     vertex 8.2965 -22.7945 0.7127
   endloop
 endfacet
 facet normal -0.3319 0.9118 -0.2419
   outer loop
     vertex -8.2965 22.7945 -11.3834
     vertex -9.9514 27.3411 8.0226
     vertex -6.2531 28.5883 7.6497
   endloop
 endfacet
 facet normal -0.3319 0.9118 -0.2419
   outer loop
     vertex -8.2965 22.7945 -11.3834
     vertex -6.2531 28.5883 7.6497
     vertex -2.6333 29.6128 6.5454
   endloop
 endfacet
 facet normal -0.3319 0.9118 -0.2419
   outer loop
     vertex -8.2965 22.7945 -11.3834
     vertex -2.6333 29.6128 6.5454
     vertex 0.7688 30.3752 4.7521
   endloop
 endfacet
 facet normal -0.3319 0.9118 -0.2419
   outer loop
     vertex -8.2965 22.7945 -11.3834
     vertex 0.7688 30.3752 4.7521
     vertex 3.8226 30.8464 2.3387
   endloop
 endfacet
 facet normal -0.3319 0.9118 -0.2419
   outer loop
     vertex -8.2965 22.7945 -11.3834
     vertex 3.8226 30.8464 2.3387
     vertex 6.4106 31.0081 -0.6020
   endloop
 endfacet
 facet normal -0.3319 0.9118 -0.2419
   outer loop
     vertex -8.2965 22.7945 -11.3834
     vertex 6.4106 31.0081 -0.6020
     vertex 8.4335 30.8541 -3.9570
   endloop
 endfacet
 facet normal -0.3319 0.9118 -0.2419
   outer loop
     vertex -8.2965 22.7945 -11.3834
     vertex 8.4335 30.8541 -3.9570
     vertex 9.8134 30.3905 -7.5975
   endloop
 endfacet
 facet normal -0.3319 0.9118 -0.2419
   outer loop
     vertex -8.2965 22.7945 -11.3834
     vertex 9.8134 30.3905 -7.5975
     vertex 10.4973 29.6349 -11.3834
   endloop
 endfacet
 facet normal -0.3319 0.9118 -0.2419
   outer loop
     vertex -8.2965 22.7945 -11.3834
     vertex 10.4973 29.6349 -11.3834
     vertex 10.4591 28.6165 -15.1693
   endloop
 endfacet
 facet normal -0.3319 0.9118 -0.2419
   outer loop
     vertex -8.2965 22.7945 -11.3834
     vertex 10.4591 28.6165 -15.1693
     vertex 9.7000 27.3743 -18.8097
   endloop
 endfacet
 facet normal -0.3319 0.9118 -0.2419
   outer loop
     vertex -8.2965 22.7945 -11.3834
     vertex 9.7000 27.3743 -18.8097
     vertex 8.2494 25.9561 -22.1647
   endloop
 endfacet
 facet normal -0.3319 0.9118 -0.2419
   outer loop
     vertex -8.2965 22.7945 -11.3834
     vertex 8.2494 25.9561 -22.1647
     vertex 6.1629 24.4164 -25.1054
   endloop
 endfacet
 facet normal -0.3319 0.9118 -0.2419
   outer loop
     vertex -8.2965 22.7945 -11.3834
     vertex 6.1629 24.4164 -25.1054
     vertex 3.5207 22.8144 -27.5188
   endloop
 endfacet
 facet normal -0.3319 0.9118 -0.2419
   outer loop
     vertex -8.2965 22.7945 -11.3834
     vertex 3.5207 22.8144 -27.5188
     vertex 0.4245 21.2117 -29.3121
   endloop
 endfacet
 facet normal -0.3319 0.9118 -0.2419
   outer loop
     vertex -8.2965 22.7945 -11.3834
     vertex 0.4245 21.2117 -29.3121
     vertex -3.0070 19.6697 -30.4164
   endloop
 endfacet
 facet normal -0.3319 0.9118 -0.2419
   outer loop
     vertex -8.2965 22.7945 -11.3834
     vertex -3.0070 19.6697 -30.4164
     vertex -6.6417 18.2479 -30.7893
   endloop
 endfacet
 facet normal -0.3319 0.9118 -0.2419
   outer loop
     vertex -8.2965 22.7945 -11.3834
     vertex -6.6417 18.2479 -30.7893
     vertex -10.3400 17.0007 -30.4164
   endloop
 endfacet
 facet normal -0.3319 0.9118 -0.2419
   outer loop
     vertex -8.2965 22.7945 -11.3834
     vertex -10.3400 17.0007 -30.4164
     vertex -13.9597 15.9762 -29.3121
   endloop
 endfacet
 facet normal -0.3319 0.9118 -0.2419
   outer loop
     vertex -8.2965 22.7945 -11.3834
     vertex -13.9597 15.9762 -29.3121
     vertex -17.3619 15.2138 -27.5188
   endloop
 endfacet
 facet normal -0.3319 0.9118 -0.2419
   outer loop
     vertex -8.2965 22.7945 -11.3834
     vertex -17.3619 15.2138 -27.5188
     vertex -20.4156 14.7426 -25.1054
   endloop
 endfacet
 facet normal -0.3319 0.9118 -0.2419
   outer loop
     vertex -8.2965 22.7945 -11.3834
     vertex -20.4156 14.7426 -25.1054
     vertex -23.0036 14.5809 -22.1647
   endloop
 endfacet
 facet normal -0.3319 0.9118 -0.2419
   outer loop
     vertex -8.2965 22.7945 -11.3834
     vertex -23.0036 14.5809 -22.1647
     vertex -25.0265 14.7349 -18.8097
   endloop
 endfacet
 facet normal -0.3319 0.9118 -0.2419
   outer loop
     vertex -8.2965 22.7945 -11.3834
     vertex -25.0265 14.7349 -18.8097
     vertex -26.4064 15.1985 -15.1693
   endloop
 endfacet
 facet normal -0.3319 0.9118 -0.2419
   outer loop
     vertex -8.2965 22.7945 -11.3834
     vertex -26.4064 15.1985 -15.1693
     vertex -27.0904 15.9541 -11.3834
   endloop
 endfacet
 facet normal -0.3319 0.9118 -0.2419
   outer loop
     vertex -8.2965 22.7945 -11.3834
     vertex -27.0904 15.9541 -11.3834
     vertex -27.0521 16.9725 -7.5975
   endloop
 endfacet
 facet normal -0.3319 0.9118 -0.2419
   outer loop
     vertex -8.2965 22.7945 -11.3834
     vertex -27.0521 16.9725 -7.5975
     vertex -26.2930 18.2147 -3.9570
   endloop
 endfacet
 facet normal -0.3319 0.9118 -0.2419
   outer loop
     vertex -8.2965 22.7945 -11.3834
     vertex -26.2930 18.2147 -3.9570
     vertex -24.8424 19.6329 -0.6020
   endloop
 endfacet
 facet normal -0.3319 0.9118 -0.2419
   outer loop
     vertex -8.2965 22.7945 -11.3834
     vertex -24.8424 19.6329 -0.6020
     vertex -22.7559 21.1726 2.3387
   endloop
 endfacet
 facet normal -0.3319 0.9118 -0.2419
   outer loop
     vertex -8.2965 22.7945 -11.3834
     vertex -22.7559 21.1726 2.3387
     vertex -20.1138 22.7746 4.7521
   endloop
 endfacet
 facet normal -0.3319 0.9118 -0.2419
   outer loop
     vertex -8.2965 22.7945 -11.3834
     vertex -20.1138 22.7746 4.7521
     vertex -17.0175 24.3773 6.5454
   endloop
 endfacet
 facet normal -0.3319 0.9118 -0.2419
   outer loop
     vertex -8.2965 22.7945 -11.3834
     vertex -17.0175 24.3773 6.5454
     vertex -13.5861 25.9193 7.6497
   endloop
 endfacet
 facet normal -0.3319 0.9118 -0.2419
   outer loop
     vertex -8.2965 22.7945 -11.3834
     vertex -13.5861 25.9193 7.6497
     vertex -9.9514 27.3411 8.0226
   endloop
 endfacet
 facet normal 0.0098 0.2598 0.9656
   outer loop
     vertex -6.2531 28.5883 7.6497
     vertex -9.9514 27.3411 8.0226
     vertex 6.6417 -18.2479 20.1187
   endloop
 endfacet
 facet normal 0.0098 0.2598 0.9656
   outer loop
     vertex 6.6417 -18.2479 20.1187
     vertex 10.3400 -17.0007 19.7458
     vertex -6.2531 28.5883 7.6497
   endloop
 endfacet
 facet normal 0.1936 0.3168 0.9285
   outer loop
     vertex -2.6333 29.6128 6.5454
     vertex -6.2531 28.5883 7.6497
     vertex 10.3400 -17.0007 19.7458
   endloop
 endfacet
 facet normal 0.1936 0.3168 0.9285
   outer loop
     vertex 10.3400 -17.0007 19.7458
     vertex 13.9597 -15.9762 18.6415
     vertex -2.6333 29.6128 6.5454
   endloop
 endfacet
 facet normal 0.3700 0.3617 0.8557
   outer loop
     vertex 0.7688 30.3752 4.7521
     vertex -2.6333 29.6128 6.5454
     vertex 13.9597 -15.9762 18.6415
   endloop
 endfacet
 facet normal 0.3700 0.3617 0.8557
   outer loop
     vertex 13.9597 -15.9762 18.6415
     vertex 17.3619 -15.2138 16.8482
     vertex 0.7688 30.3752 4.7521
   endloop
 endfacet
 facet normal 0.5322 0.3927 0.7500
   outer loop
     vertex 3.8226 30.8464 2.3387
     vertex 0.7688 30.3752 4.7521
     vertex 17.3619 -15.2138 16.8482
   endloop
 endfacet
 facet normal 0.5322 0.3927 0.7500
   outer loop
     vertex 17.3619 -15.2138 16.8482
     vertex 20.4156 -14.7426 14.4348
     vertex 3.8226 30.8464 2.3387
   endloop
 endfacet
 facet normal 0.6739 0.4086 0.6155
   outer loop
     vertex 6.4106 31.0081 -0.6020
     vertex 3.8226 30.8464 2.3387
     vertex 20.4156 -14.7426 14.4348
   endloop
 endfacet
 facet normal 0.6739 0.4086 0.6155
   outer loop
     vertex 20.4156 -14.7426 14.4348
     vertex 23.0036 -14.5809 11.4941
     vertex 6.4106 31.0081 -0.6020
   endloop
 endfacet
 facet normal 0.7897 0.4088 0.4574
   outer loop
     vertex 8.4335 30.8541 -3.9570
     vertex 6.4106 31.0081 -0.6020
     vertex 23.0036 -14.5809 11.4941
   endloop
 endfacet
 facet normal 0.7897 0.4088 0.4574
   outer loop
     vertex 23.0036 -14.5809 11.4941
     vertex 25.0265 -14.7349 8.1391
     vertex 8.4335 30.8541 -3.9570
   endloop
 endfacet
 facet normal 0.8752 0.3933 0.2817
   outer loop
     vertex 9.8134 30.3905 -7.5975
     vertex 8.4335 30.8541 -3.9570
     vertex 25.0265 -14.7349 8.1391
   endloop
 endfacet
 facet normal 0.8752 0.3933 0.2817
   outer loop
     vertex 25.0265 -14.7349 8.1391
     vertex 26.4064 -15.1985 4.4986
     vertex 9.8134 30.3905 -7.5975
   endloop
 endfacet
 facet normal 0.9271 0.3627 0.0951
   outer loop
     vertex 10.4973 29.6349 -11.3834
     vertex 9.8134 30.3905 -7.5975
     vertex 26.4064 -15.1985 4.4986
   endloop
 endfacet
 facet normal 0.9271 0.3627 0.0951
   outer loop
     vertex 26.4064 -15.1985 4.4986
     vertex 27.0904 -15.9541 0.7127
     vertex 10.4973 29.6349 -11.3834
   endloop
 endfacet
 facet normal 0.9433 0.3181 -0.0951
   outer loop
     vertex 10.4591 28.6165 -15.1693
     vertex 10.4973 29.6349 -11.3834
     vertex 27.0904 -15.9541 0.7127
   endloop
 endfacet
 facet normal 0.9433 0.3181 -0.0951
   outer loop
     vertex 27.0904 -15.9541 0.7127
     vertex 27.0521 -16.9725 -3.0732
     vertex 10.4591 28.6165 -15.1693
   endloop
 endfacet
 facet normal 0.9232 0.2613 -0.2817
   outer loop
     vertex 9.7000 27.3743 -18.8097
     vertex 10.4591 28.6165 -15.1693
     vertex 27.0521 -16.9725 -3.0732
   endloop
 endfacet
 facet normal 0.9232 0.2613 -0.2817
   outer loop
     vertex 27.0521 -16.9725 -3.0732
     vertex 26.2930 -18.2147 -6.7136
     vertex 9.7000 27.3743 -18.8097
   endloop
 endfacet
 facet normal 0.8677 0.1945 -0.4574
   outer loop
     vertex 8.2494 25.9561 -22.1647
     vertex 9.7000 27.3743 -18.8097
     vertex 26.2930 -18.2147 -6.7136
   endloop
 endfacet
 facet normal 0.8677 0.1945 -0.4574
   outer loop
     vertex 26.2930 -18.2147 -6.7136
     vertex 24.8424 -19.6329 -10.0686
     vertex 8.2494 25.9561 -22.1647
   endloop
 endfacet
 facet normal 0.7789 0.1202 -0.6155
   outer loop
     vertex 6.1629 24.4164 -25.1054
     vertex 8.2494 25.9561 -22.1647
     vertex 24.8424 -19.6329 -10.0686
   endloop
 endfacet
 facet normal 0.7789 0.1202 -0.6155
   outer loop
     vertex 24.8424 -19.6329 -10.0686
     vertex 22.7559 -21.1726 -13.0093
     vertex 6.1629 24.4164 -25.1054
   endloop
 endfacet
 facet normal 0.6601 0.0412 -0.7500
   outer loop
     vertex 3.5207 22.8144 -27.5188
     vertex 6.1629 24.4164 -25.1054
     vertex 22.7559 -21.1726 -13.0093
   endloop
 endfacet
 facet normal 0.6601 0.0412 -0.7500
   outer loop
     vertex 22.7559 -21.1726 -13.0093
     vertex 20.1138 -22.7746 -15.4227
     vertex 3.5207 22.8144 -27.5188
   endloop
 endfacet
 facet normal 0.5159 -0.0393 -0.8557
   outer loop
     vertex 0.4245 21.2117 -29.3121
     vertex 3.5207 22.8144 -27.5188
     vertex 20.1138 -22.7746 -15.4227
   endloop
 endfacet
 facet normal 0.5159 -0.0393 -0.8557
   outer loop
     vertex 20.1138 -22.7746 -15.4227
     vertex 17.0175 -24.3773 -17.2160
     vertex 0.4245 21.2117 -29.3121
   endloop
 endfacet
 facet normal 0.3520 -0.1183 -0.9285
   outer loop
     vertex -3.0070 19.6697 -30.4164
     vertex 0.4245 21.2117 -29.3121
     vertex 17.0175 -24.3773 -17.2160
   endloop
 endfacet
 facet normal 0.3520 -0.1183 -0.9285
   outer loop
     vertex 17.0175 -24.3773 -17.2160
     vertex 13.5861 -25.9193 -18.3203
     vertex -3.0070 19.6697 -30.4164
   endloop
 endfacet
 facet normal 0.1744 -0.1927 -0.9656
   outer loop
     vertex -6.6417 18.2479 -30.7893
     vertex -3.0070 19.6697 -30.4164
     vertex 13.5861 -25.9193 -18.3203
   endloop
 endfacet
 facet normal 0.1744 -0.1927 -0.9656
   outer loop
     vertex 13.5861 -25.9193 -18.3203
     vertex 9.9514 -27.3411 -18.6932
     vertex -6.6417 18.2479 -30.7893
   endloop
 endfacet
 facet normal -0.0098 -0.2598 -0.9656
   outer loop
     vertex -10.3400 17.0007 -30.4164
     vertex -6.6417 18.2479 -30.7893
     vertex 9.9514 -27.3411 -18.6932
   endloop
 endfacet
 facet normal -0.0098 -0.2598 -0.9656
   outer loop
     vertex 9.9514 -27.3411 -18.6932
     vertex 6.2531 -28.5883 -18.3203
     vertex -10.3400 17.0007 -30.4164
   endloop
 endfacet
 facet normal -0.1936 -0.3168 -0.9285
   outer loop
     vertex -13.9597 15.9762 -29.3121
     vertex -10.3400 17.0007 -30.4164
     vertex 6.2531 -28.5883 -18.3203
   endloop
 endfacet
 facet normal -0.1936 -0.3168 -0.9285
   outer loop
     vertex 6.2531 -28.5883 -18.3203
     vertex 2.6333 -29.6128 -17.2160
     vertex -13.9597 15.9762 -29.3121
   endloop
 endfacet
 facet normal -0.3700 -0.3617 -0.8557
   outer loop
     vertex -17.3619 15.2138 -27.5188
     vertex -13.9597 15.9762 -29.3121
     vertex 2.6333 -29.6128 -17.2160
   endloop
 endfacet
 facet normal -0.3700 -0.3617 -0.8557
   outer loop
     vertex 2.6333 -29.6128 -17.2160
     vertex -0.7688 -30.3752 -15.4227
     vertex -17.3619 15.2138 -27.5188
   endloop
 endfacet
 facet normal -0.5322 -0.3927 -0.7500
   outer loop
     vertex -20.4156 14.7426 -25.1054
     vertex -17.3619 15.2138 -27.5188
     vertex -0.7688 -30.3752 -15.4227
   endloop
 endfacet
 facet normal -0.5322 -0.3927 -0.7500
   outer loop
     vertex -0.7688 -30.3752 -15.4227
     vertex -3.8226 -30.8464 -13.0093
     vertex -20.4156 14.7426 -25.1054
   endloop
 endfacet
 facet normal -0.6739 -0.4086 -0.6155
   outer loop
     vertex -23.0036 14.5809 -22.1647
     vertex -20.4156 14.7426 -25.1054
     vertex -3.8226 -30.8464 -13.0093
   endloop
 endfacet
 facet normal -0.6739 -0.4086 -0.6155
   outer loop
     vertex -3.8226 -30.8464 -13.0093
     vertex -6.4106 -31.0081 -10.0686
     vertex -23.0036 14.5809 -22.1647
   endloop
 endfacet
 facet normal -0.7897 -0.4088 -0.4574
   outer loop
     vertex -25.0265 14.7349 -18.8097
     vertex -23.0036 14.5809 -22.1647
     vertex -6.4106 -31.0081 -10.0686
   endloop
 endfacet
 facet normal -0.7897 -0.4088 -0.4574
   outer loop
     vertex -6.4106 -31.0081 -10.0686
     vertex -8.4335 -30.8541 -6.7136
     vertex -25.0265 14.7349 -18.8097
   endloop
 endfacet
 facet normal -0.8752 -0.3933 -0.2817
   outer loop
     vertex -26.4064 15.1985 -15.1693
     vertex -25.0265 14.7349 -18.8097
     vertex -8.4335 -30.8541 -6.7136
   endloop
 endfacet
 facet normal -0.8752 -0.3933 -0.2817
   outer loop
     vertex -8.4335 -30.8541 -6.7136
     vertex -9.8134 -30.3905 -3.0732
     vertex -26.4064 15.1985 -15.1693
   endloop
 endfacet
 facet normal -0.9271 -0.3627 -0.0951
   outer loop
     vertex -27.0904 15.9541 -11.3834
     vertex -26.4064 15.1985 -15.1693
     vertex -9.8134 -30.3905 -3.0732
   endloop
 endfacet
 facet normal -0.9271 -0.3627 -0.0951
   outer loop
     vertex -9.8134 -30.3905 -3.0732
     vertex -10.4973 -29.6349 0.7127
     vertex -27.0904 15.9541 -11.3834
   endloop
 endfacet
 facet normal -0.9433 -0.3181 0.0951
   outer loop
     vertex -27.0521 16.9725 -7.5975
     vertex -27.0904 15.9541 -11.3834
     vertex -10.4973 -29.6349 0.7127
   endloop
 endfacet
 facet normal -0.9433 -0.3181 0.0951
   outer loop
     vertex -10.4973 -29.6349 0.7127
     vertex -10.4591 -28.6165 4.4986
     vertex -27.0521 16.9725 -7.5975
   endloop
 endfacet
 facet normal -0.9232 -0.2613 0.2817
   outer loop
     vertex -26.2930 18.2147 -3.9570
     vertex -27.0521 16.9725 -7.5975
     vertex -10.4591 -28.6165 4.4986
   endloop
 endfacet
 facet normal -0.9232 -0.2613 0.2817
   outer loop
     vertex -10.4591 -28.6165 4.4986
     vertex -9.7000 -27.3743 8.1391
     vertex -26.2930 18.2147 -3.9570
   endloop
 endfacet
 facet normal -0.8677 -0.1945 0.4574
   outer loop
     vertex -24.8424 19.6329 -0.6020
     vertex -26.2930 18.2147 -3.9570
     vertex -9.7000 -27.3743 8.1391
   endloop
 endfacet
 facet normal -0.8677 -0.1945 0.4574
   outer loop
     vertex -9.7000 -27.3743 8.1391
     vertex -8.2494 -25.9561 11.4941
     vertex -24.8424 19.6329 -0.6020
   endloop
 endfacet
 facet normal -0.7789 -0.1202 0.6155
   outer loop
     vertex -22.7559 21.1726 2.3387
     vertex -24.8424 19.6329 -0.6020
     vertex -8.2494 -25.9561 11.4941
   endloop
 endfacet
 facet normal -0.7789 -0.1202 0.6155
   outer loop
     vertex -8.2494 -25.9561 11.4941
     vertex -6.1629 -24.4164 14.4348
     vertex -22.7559 21.1726 2.3387
   endloop
 endfacet
 facet normal -0.6601 -0.0412 0.7500
   outer loop
     vertex -20.1138 22.7746 4.7521
     vertex -22.7559 21.1726 2.3387
     vertex -6.1629 -24.4164 14.4348
   endloop
 endfacet
 facet normal -0.6601 -0.0412 0.7500
   outer loop
     vertex -6.1629 -24.4164 14.4348
     vertex -3.5207 -22.8144 16.8482
     vertex -20.1138 22.7746 4.7521
   endloop
 endfacet
 facet normal -0.5159 0.0393 0.8557
   outer loop
     vertex -17.0175 24.3773 6.5454
     vertex -20.1138 22.7746 4.7521
     vertex -3.5207 -22.8144 16.8482
   endloop
 endfacet
 facet normal -0.5159 0.0393 0.8557
   outer loop
     vertex -3.5207 -22.8144 16.8482
     vertex -0.4245 -21.2117 18.6415
     vertex -17.0175 24.3773 6.5454
   endloop
 endfacet
 facet normal -0.3520 0.1183 0.9285
   outer loop
     vertex -13.5861 25.9193 7.6497
     vertex -17.0175 24.3773 6.5454
     vertex -0.4245 -21.2117 18.6415
   endloop
 endfacet
 facet normal -0.3520 0.1183 0.9285
   outer loop
     vertex -0.4245 -21.2117 18.6415
     vertex 3.0070 -19.6697 19.7458
     vertex -13.5861 25.9193 7.6497
   endloop
 endfacet
 facet normal -0.1744 0.1927 0.9656
   outer loop
     vertex -9.9514 27.3411 8.0226
     vertex -13.5861 25.9193 7.6497
     vertex 3.0070 -19.6697 19.7458
   endloop
 endfacet
 facet normal -0.1744 0.1927 0.9656
   outer loop
     vertex 3.0070 -19.6697 19.7458
     vertex 6.6417 -18.2479 20.1187
     vertex -9.9514 27.3411 8.0226
   endloop
 endfacet
 facet normal 0.1782 -0.8134 -0.5538
   outer loop
     vertex 63.3890 -22.0451 -67.7620
     vertex 19.0047 -40.8307 -54.4530
     vertex -2.2234 -18.6238 -93.9019
   endloop
 endfacet
 facet normal 0.1782 -0.8134 -0.5538
   outer loop
     vertex -2.2234 -18.6238 -93.9019
     vertex 42.1609 0.1618 -107.2109
     vertex 63.3890 -22.0451 -67.7620
   endloop
 endfacet
 facet normal -0.1782 0.8134 0.5538
   outer loop
     vertex 10.0943 -0.1619 -26.7646
     vertex 54.4787 18.6237 -40.0736
     vertex 33.2506 40.8306 -79.5225
   endloop
 endfacet
 facet normal -0.1782 0.8134 0.5538
   outer loop
     vertex 33.2506 40.8306 -79.5225
     vertex -11.1338 22.0450 -66.2135
     vertex 10.0943 -0.1619 -26.7646
   endloop
 endfacet
 facet normal -0.8877 -0.3757 0.2662
   outer loop
     vertex 19.0047 -40.8307 -54.4530
     vertex 10.0943 -0.1619 -26.7646
     vertex -11.1338 22.0450 -66.2135
   endloop
 endfacet
 facet normal -0.8877 -0.3757 0.2662
   outer loop
     vertex -11.1338 22.0450 -66.2135
     vertex -2.2234 -18.6238 -93.9019
     vertex 19.0047 -40.8307 -54.4530
   endloop
 endfacet
 facet normal 0.8877 0.3757 -0.2662
   outer loop
     vertex 54.4787 18.6237 -40.0736
     vertex 63.3890 -22.0451 -67.7620
     vertex 42.1609 0.1618 -107.2109
   endloop
 endfacet
 facet normal 0.8877 0.3757 -0.2662
   outer loop
     vertex 42.1609 0.1618 -107.2109
     vertex 33.2506 40.8306 -79.5225
     vertex 54.4787 18.6237 -40.0736
   endloop
 endfacet
 facet normal 0.4246 -0.4441 0.7890
   outer loop
     vertex 54.4787 18.6237 -40.0736
     vertex 10.0943 -0.1619 -26.7646
     vertex 19.0047 -40.8307 -54.4530
   endloop
 endfacet
 facet normal 0.4246 -0.4441 0.7890
   outer loop
     vertex 19.0047 -40.8307 -54.4530
     vertex 63.3890 -22.0451 -67.7620
     vertex 54.4787 18.6237 -40.0736
   endloop
 endfacet
 facet normal -0.4246 0.4441 -0.7890
   outer loop
     vertex 42.1609 0.1618 -107.2109
     vertex -2.2234 -18.6238 -93.9019
     vertex -11.1338 22.0450 -66.2135
   endloop
 endfacet
 facet normal -0.4246 0.4441 -0.7890
   outer loop
     vertex -11.1338 22.0450 -66.2135
     vertex 33.2506 40.8306 -79.5225
     vertex 42.1609 0.1618 -107.2109
   endloop
 endfacet
endsolid
